<mxfile host="app.diagrams.net" modified="2021-09-21T04:32:22.120Z" agent="5.0 (Macintosh; Intel Mac OS X 10_15_7) AppleWebKit/537.36 (KHTML, like Gecko) Chrome/93.0.4577.63 Safari/537.36" etag="eju_z44_IUkzfE3rqOjj" version="15.2.9" type="github">
  <diagram id="4NtMFITtup69l5H8-_K1" name="Page-1">
    <mxGraphModel dx="1761" dy="1507" grid="1" gridSize="10" guides="1" tooltips="1" connect="1" arrows="1" fold="1" page="1" pageScale="1" pageWidth="850" pageHeight="1100" math="0" shadow="0">
      <root>
        <mxCell id="0" />
        <mxCell id="1" parent="0" />
        <mxCell id="cXClfhLOspgcp8DDH4Fh-5" style="edgeStyle=orthogonalEdgeStyle;rounded=0;orthogonalLoop=1;jettySize=auto;html=1;exitX=0.5;exitY=0;exitDx=0;exitDy=0;endArrow=none;endFill=0;" edge="1" parent="1" source="cXClfhLOspgcp8DDH4Fh-2" target="cXClfhLOspgcp8DDH4Fh-3">
          <mxGeometry relative="1" as="geometry">
            <Array as="points">
              <mxPoint x="415" y="660" />
              <mxPoint x="415" y="625" />
              <mxPoint x="365" y="625" />
            </Array>
          </mxGeometry>
        </mxCell>
        <mxCell id="cXClfhLOspgcp8DDH4Fh-8" value="" style="edgeStyle=orthogonalEdgeStyle;rounded=0;orthogonalLoop=1;jettySize=auto;html=1;endArrow=none;endFill=0;" edge="1" parent="1" source="cXClfhLOspgcp8DDH4Fh-2" target="cXClfhLOspgcp8DDH4Fh-4">
          <mxGeometry relative="1" as="geometry" />
        </mxCell>
        <mxCell id="cXClfhLOspgcp8DDH4Fh-11" style="edgeStyle=orthogonalEdgeStyle;rounded=0;orthogonalLoop=1;jettySize=auto;html=1;exitX=0.25;exitY=1;exitDx=0;exitDy=0;entryX=0.5;entryY=0;entryDx=0;entryDy=0;endArrow=none;endFill=0;" edge="1" parent="1" source="cXClfhLOspgcp8DDH4Fh-2" target="cXClfhLOspgcp8DDH4Fh-9">
          <mxGeometry relative="1" as="geometry" />
        </mxCell>
        <mxCell id="cXClfhLOspgcp8DDH4Fh-12" style="edgeStyle=orthogonalEdgeStyle;rounded=0;orthogonalLoop=1;jettySize=auto;html=1;exitX=0.75;exitY=1;exitDx=0;exitDy=0;entryX=0.5;entryY=0;entryDx=0;entryDy=0;endArrow=none;endFill=0;" edge="1" parent="1" source="cXClfhLOspgcp8DDH4Fh-2" target="cXClfhLOspgcp8DDH4Fh-10">
          <mxGeometry relative="1" as="geometry" />
        </mxCell>
        <mxCell id="cXClfhLOspgcp8DDH4Fh-53" style="edgeStyle=orthogonalEdgeStyle;rounded=0;orthogonalLoop=1;jettySize=auto;html=1;exitX=1;exitY=0.5;exitDx=0;exitDy=0;startArrow=none;startFill=0;endArrow=none;endFill=0;strokeWidth=1;" edge="1" parent="1" source="cXClfhLOspgcp8DDH4Fh-2" target="cXClfhLOspgcp8DDH4Fh-49">
          <mxGeometry relative="1" as="geometry" />
        </mxCell>
        <mxCell id="cXClfhLOspgcp8DDH4Fh-2" value="Branch" style="whiteSpace=wrap;html=1;align=center;" vertex="1" parent="1">
          <mxGeometry x="395" y="660" width="100" height="40" as="geometry" />
        </mxCell>
        <mxCell id="cXClfhLOspgcp8DDH4Fh-3" value="Location" style="ellipse;whiteSpace=wrap;html=1;align=center;" vertex="1" parent="1">
          <mxGeometry x="315" y="550" width="100" height="40" as="geometry" />
        </mxCell>
        <mxCell id="cXClfhLOspgcp8DDH4Fh-4" value="&lt;u&gt;Name&lt;/u&gt;" style="ellipse;whiteSpace=wrap;html=1;align=center;" vertex="1" parent="1">
          <mxGeometry x="455" y="550" width="100" height="40" as="geometry" />
        </mxCell>
        <mxCell id="cXClfhLOspgcp8DDH4Fh-9" value="Budget" style="ellipse;whiteSpace=wrap;html=1;align=center;" vertex="1" parent="1">
          <mxGeometry x="315" y="740" width="100" height="40" as="geometry" />
        </mxCell>
        <mxCell id="cXClfhLOspgcp8DDH4Fh-10" value="Rating" style="ellipse;whiteSpace=wrap;html=1;align=center;" vertex="1" parent="1">
          <mxGeometry x="455" y="740" width="100" height="40" as="geometry" />
        </mxCell>
        <mxCell id="cXClfhLOspgcp8DDH4Fh-56" style="edgeStyle=orthogonalEdgeStyle;rounded=0;orthogonalLoop=1;jettySize=auto;html=1;startArrow=none;startFill=0;endArrow=none;endFill=0;strokeWidth=1;" edge="1" parent="1" source="cXClfhLOspgcp8DDH4Fh-14" target="cXClfhLOspgcp8DDH4Fh-54">
          <mxGeometry relative="1" as="geometry" />
        </mxCell>
        <mxCell id="cXClfhLOspgcp8DDH4Fh-14" value="Customer" style="whiteSpace=wrap;html=1;align=center;" vertex="1" parent="1">
          <mxGeometry x="395" y="350" width="100" height="40" as="geometry" />
        </mxCell>
        <mxCell id="cXClfhLOspgcp8DDH4Fh-21" style="edgeStyle=orthogonalEdgeStyle;rounded=0;orthogonalLoop=1;jettySize=auto;html=1;exitX=0.5;exitY=1;exitDx=0;exitDy=0;entryX=0.25;entryY=0;entryDx=0;entryDy=0;endArrow=none;endFill=0;" edge="1" parent="1" source="cXClfhLOspgcp8DDH4Fh-17" target="cXClfhLOspgcp8DDH4Fh-14">
          <mxGeometry relative="1" as="geometry">
            <Array as="points">
              <mxPoint x="325" y="320" />
              <mxPoint x="420" y="320" />
            </Array>
          </mxGeometry>
        </mxCell>
        <mxCell id="cXClfhLOspgcp8DDH4Fh-17" value="NamePhoneNum" style="ellipse;whiteSpace=wrap;html=1;align=center;fontStyle=4" vertex="1" parent="1">
          <mxGeometry x="275" y="240" width="100" height="40" as="geometry" />
        </mxCell>
        <mxCell id="cXClfhLOspgcp8DDH4Fh-22" style="edgeStyle=orthogonalEdgeStyle;rounded=0;orthogonalLoop=1;jettySize=auto;html=1;exitX=0.5;exitY=1;exitDx=0;exitDy=0;entryX=0.5;entryY=0;entryDx=0;entryDy=0;endArrow=none;endFill=0;" edge="1" parent="1" source="cXClfhLOspgcp8DDH4Fh-18" target="cXClfhLOspgcp8DDH4Fh-14">
          <mxGeometry relative="1" as="geometry" />
        </mxCell>
        <mxCell id="cXClfhLOspgcp8DDH4Fh-18" value="Street Address" style="ellipse;whiteSpace=wrap;html=1;align=center;" vertex="1" parent="1">
          <mxGeometry x="395" y="240" width="100" height="40" as="geometry" />
        </mxCell>
        <mxCell id="cXClfhLOspgcp8DDH4Fh-23" style="edgeStyle=orthogonalEdgeStyle;rounded=0;orthogonalLoop=1;jettySize=auto;html=1;exitX=0.5;exitY=1;exitDx=0;exitDy=0;entryX=0.902;entryY=-0.027;entryDx=0;entryDy=0;entryPerimeter=0;endArrow=none;endFill=0;" edge="1" parent="1" source="cXClfhLOspgcp8DDH4Fh-20" target="cXClfhLOspgcp8DDH4Fh-14">
          <mxGeometry relative="1" as="geometry">
            <Array as="points">
              <mxPoint x="565" y="320" />
              <mxPoint x="485" y="320" />
            </Array>
          </mxGeometry>
        </mxCell>
        <mxCell id="cXClfhLOspgcp8DDH4Fh-20" value="City" style="ellipse;whiteSpace=wrap;html=1;align=center;" vertex="1" parent="1">
          <mxGeometry x="515" y="240" width="100" height="40" as="geometry" />
        </mxCell>
        <mxCell id="cXClfhLOspgcp8DDH4Fh-29" style="edgeStyle=orthogonalEdgeStyle;rounded=0;orthogonalLoop=1;jettySize=auto;html=1;exitX=0.5;exitY=1;exitDx=0;exitDy=0;entryX=0.5;entryY=0;entryDx=0;entryDy=0;endArrow=classic;endFill=1;entryPerimeter=0;strokeWidth=4;" edge="1" parent="1" source="cXClfhLOspgcp8DDH4Fh-24" target="cXClfhLOspgcp8DDH4Fh-27">
          <mxGeometry relative="1" as="geometry" />
        </mxCell>
        <mxCell id="cXClfhLOspgcp8DDH4Fh-24" value="Account" style="whiteSpace=wrap;html=1;align=center;" vertex="1" parent="1">
          <mxGeometry x="140" y="500" width="100" height="40" as="geometry" />
        </mxCell>
        <mxCell id="cXClfhLOspgcp8DDH4Fh-25" value="Loan" style="whiteSpace=wrap;html=1;align=center;" vertex="1" parent="1">
          <mxGeometry x="590" y="500" width="100" height="40" as="geometry" />
        </mxCell>
        <mxCell id="cXClfhLOspgcp8DDH4Fh-28" style="edgeStyle=orthogonalEdgeStyle;rounded=0;orthogonalLoop=1;jettySize=auto;html=1;entryX=0;entryY=0.5;entryDx=0;entryDy=0;endArrow=none;endFill=0;exitX=1;exitY=0.5;exitDx=0;exitDy=0;" edge="1" parent="1" source="cXClfhLOspgcp8DDH4Fh-27" target="cXClfhLOspgcp8DDH4Fh-2">
          <mxGeometry relative="1" as="geometry">
            <mxPoint x="220" y="650" as="sourcePoint" />
            <Array as="points">
              <mxPoint x="250" y="680" />
            </Array>
          </mxGeometry>
        </mxCell>
        <mxCell id="cXClfhLOspgcp8DDH4Fh-27" value="holds" style="shape=rhombus;perimeter=rhombusPerimeter;whiteSpace=wrap;html=1;align=center;" vertex="1" parent="1">
          <mxGeometry x="130" y="654" width="120" height="55" as="geometry" />
        </mxCell>
        <mxCell id="cXClfhLOspgcp8DDH4Fh-32" style="edgeStyle=orthogonalEdgeStyle;rounded=0;orthogonalLoop=1;jettySize=auto;html=1;entryX=0.5;entryY=0;entryDx=0;entryDy=0;endArrow=none;endFill=0;exitX=0.5;exitY=1;exitDx=0;exitDy=0;strokeWidth=4;" edge="1" parent="1" source="cXClfhLOspgcp8DDH4Fh-31" target="cXClfhLOspgcp8DDH4Fh-24">
          <mxGeometry relative="1" as="geometry">
            <mxPoint x="190" y="460" as="sourcePoint" />
          </mxGeometry>
        </mxCell>
        <mxCell id="cXClfhLOspgcp8DDH4Fh-33" style="edgeStyle=orthogonalEdgeStyle;rounded=0;orthogonalLoop=1;jettySize=auto;html=1;endArrow=none;endFill=0;startArrow=none;startFill=0;strokeWidth=1;" edge="1" parent="1">
          <mxGeometry relative="1" as="geometry">
            <mxPoint x="396" y="370" as="targetPoint" />
            <mxPoint x="246" y="370" as="sourcePoint" />
          </mxGeometry>
        </mxCell>
        <mxCell id="cXClfhLOspgcp8DDH4Fh-31" value="has" style="shape=rhombus;perimeter=rhombusPerimeter;whiteSpace=wrap;html=1;align=center;" vertex="1" parent="1">
          <mxGeometry x="130" y="340" width="120" height="60" as="geometry" />
        </mxCell>
        <mxCell id="cXClfhLOspgcp8DDH4Fh-36" style="edgeStyle=orthogonalEdgeStyle;rounded=0;orthogonalLoop=1;jettySize=auto;html=1;entryX=0;entryY=0.25;entryDx=0;entryDy=0;startArrow=none;startFill=0;endArrow=none;endFill=0;strokeWidth=1;exitX=1;exitY=0.5;exitDx=0;exitDy=0;" edge="1" parent="1" source="cXClfhLOspgcp8DDH4Fh-58" target="cXClfhLOspgcp8DDH4Fh-24">
          <mxGeometry relative="1" as="geometry">
            <mxPoint x="70" y="460" as="sourcePoint" />
          </mxGeometry>
        </mxCell>
        <mxCell id="cXClfhLOspgcp8DDH4Fh-39" style="edgeStyle=orthogonalEdgeStyle;rounded=0;orthogonalLoop=1;jettySize=auto;html=1;entryX=0;entryY=0.5;entryDx=0;entryDy=0;startArrow=none;startFill=0;endArrow=none;endFill=0;strokeWidth=1;" edge="1" parent="1" source="cXClfhLOspgcp8DDH4Fh-38" target="cXClfhLOspgcp8DDH4Fh-24">
          <mxGeometry relative="1" as="geometry" />
        </mxCell>
        <mxCell id="cXClfhLOspgcp8DDH4Fh-38" value="Balance" style="ellipse;whiteSpace=wrap;html=1;align=center;" vertex="1" parent="1">
          <mxGeometry x="-30" y="530" width="100" height="40" as="geometry" />
        </mxCell>
        <mxCell id="cXClfhLOspgcp8DDH4Fh-41" style="edgeStyle=orthogonalEdgeStyle;rounded=0;orthogonalLoop=1;jettySize=auto;html=1;entryX=1;entryY=0.5;entryDx=0;entryDy=0;startArrow=none;startFill=0;endArrow=none;endFill=0;strokeWidth=1;" edge="1" parent="1" target="cXClfhLOspgcp8DDH4Fh-25">
          <mxGeometry relative="1" as="geometry">
            <mxPoint x="740" y="460" as="sourcePoint" />
            <Array as="points">
              <mxPoint x="715" y="460" />
              <mxPoint x="715" y="510" />
              <mxPoint x="690" y="510" />
            </Array>
          </mxGeometry>
        </mxCell>
        <mxCell id="cXClfhLOspgcp8DDH4Fh-40" value="ID Number" style="ellipse;whiteSpace=wrap;html=1;align=center;fontStyle=4;" vertex="1" parent="1">
          <mxGeometry x="740" y="440" width="100" height="40" as="geometry" />
        </mxCell>
        <mxCell id="cXClfhLOspgcp8DDH4Fh-43" style="edgeStyle=orthogonalEdgeStyle;rounded=0;orthogonalLoop=1;jettySize=auto;html=1;entryX=1;entryY=0.5;entryDx=0;entryDy=0;startArrow=none;startFill=0;endArrow=none;endFill=0;strokeWidth=1;" edge="1" parent="1" source="cXClfhLOspgcp8DDH4Fh-42" target="cXClfhLOspgcp8DDH4Fh-25">
          <mxGeometry relative="1" as="geometry" />
        </mxCell>
        <mxCell id="cXClfhLOspgcp8DDH4Fh-42" value="Interest Rate" style="ellipse;whiteSpace=wrap;html=1;align=center;" vertex="1" parent="1">
          <mxGeometry x="740" y="500" width="100" height="40" as="geometry" />
        </mxCell>
        <mxCell id="cXClfhLOspgcp8DDH4Fh-45" style="edgeStyle=orthogonalEdgeStyle;rounded=0;orthogonalLoop=1;jettySize=auto;html=1;entryX=1;entryY=1;entryDx=0;entryDy=0;startArrow=none;startFill=0;endArrow=none;endFill=0;strokeWidth=1;" edge="1" parent="1" source="cXClfhLOspgcp8DDH4Fh-44" target="cXClfhLOspgcp8DDH4Fh-25">
          <mxGeometry relative="1" as="geometry">
            <Array as="points">
              <mxPoint x="720" y="580" />
              <mxPoint x="720" y="530" />
              <mxPoint x="690" y="530" />
            </Array>
          </mxGeometry>
        </mxCell>
        <mxCell id="cXClfhLOspgcp8DDH4Fh-44" value="Balance" style="ellipse;whiteSpace=wrap;html=1;align=center;" vertex="1" parent="1">
          <mxGeometry x="740" y="560" width="100" height="40" as="geometry" />
        </mxCell>
        <mxCell id="cXClfhLOspgcp8DDH4Fh-51" style="edgeStyle=orthogonalEdgeStyle;rounded=0;orthogonalLoop=1;jettySize=auto;html=1;exitX=0.5;exitY=0;exitDx=0;exitDy=0;entryX=0.5;entryY=1;entryDx=0;entryDy=0;startArrow=classic;startFill=1;endArrow=none;endFill=0;strokeWidth=4;" edge="1" parent="1" source="cXClfhLOspgcp8DDH4Fh-49" target="cXClfhLOspgcp8DDH4Fh-25">
          <mxGeometry relative="1" as="geometry" />
        </mxCell>
        <mxCell id="cXClfhLOspgcp8DDH4Fh-49" value="offers" style="shape=rhombus;perimeter=rhombusPerimeter;whiteSpace=wrap;html=1;align=center;" vertex="1" parent="1">
          <mxGeometry x="580" y="650" width="120" height="60" as="geometry" />
        </mxCell>
        <mxCell id="cXClfhLOspgcp8DDH4Fh-55" style="edgeStyle=orthogonalEdgeStyle;rounded=0;orthogonalLoop=1;jettySize=auto;html=1;entryX=0.5;entryY=0;entryDx=0;entryDy=0;startArrow=classic;startFill=1;endArrow=none;endFill=0;strokeWidth=4;exitX=0.5;exitY=1;exitDx=0;exitDy=0;" edge="1" parent="1" source="cXClfhLOspgcp8DDH4Fh-54" target="cXClfhLOspgcp8DDH4Fh-25">
          <mxGeometry relative="1" as="geometry">
            <mxPoint x="640" y="460" as="sourcePoint" />
          </mxGeometry>
        </mxCell>
        <mxCell id="cXClfhLOspgcp8DDH4Fh-54" value="AssignedTo" style="shape=rhombus;perimeter=rhombusPerimeter;whiteSpace=wrap;html=1;align=center;" vertex="1" parent="1">
          <mxGeometry x="580" y="340" width="120" height="60" as="geometry" />
        </mxCell>
        <mxCell id="cXClfhLOspgcp8DDH4Fh-58" value="ID Number" style="ellipse;whiteSpace=wrap;html=1;align=center;fontStyle=4;" vertex="1" parent="1">
          <mxGeometry x="-30" y="460" width="100" height="40" as="geometry" />
        </mxCell>
      </root>
    </mxGraphModel>
  </diagram>
</mxfile>
